# xmcd
# Copyright (C) 1995-1998 Ti Kan
#
# Track frame offsets:
#       150
#       18755
#       33775
#       47085
#       60880
#       73805
#       92472
#       107647
#       122524
#       142172
#       167712
#       187401
#       203594
#       223916
#       244891
#
# Disc length: 3490 seconds
#
# Revision: 0
# Processed by: cddbd v1.5.2PL0 Copyright (c) Steve Scherf et al.
# Submitted via: CD-Import v1.0
#
DISCID=d30da00f
DTITLE=Krapf - Little Lamp
DYEAR=2009
DGENRE=
TTITLE0=You On My Mind
TTITLE1=The Old Black Magic
TTITLE2=Calm As A Mountain
TTITLE3=How Deep Is The Ocean
TTITLE4=Walking On Sunshine
TTITLE5=So In Love
TTITLE6=You Go To My Head
TTITLE7=Out On The Sea (Latin Quarter)
TTITLE8=Little Lamp
TTITLE9=The Meaning Of The Blues
TTITLE10=I Could Write A Book
TTITLE11=Beautiful Friendship
TTITLE12=Make Someone Happy
TTITLE13=Honeysuckle Rose
TTITLE14=The Sounds Of The Earth
EXTD=
EXTT0=
EXTT1=
EXTT2=
EXTT3=
EXTT4=
EXTT5=
EXTT6=
EXTT7=
EXTT8=
EXTT9=
EXTT10=
EXTT11=
EXTT12=
EXTT13=
EXTT14=
PLAYORDER=
